<svg id="Capa_1" data-name="Capa 1" xmlns="http://www.w3.org/2000/svg" viewBox="0 0 196 181"><defs><style>.cls-1{fill:#fff;stroke-width:0.5px;}.cls-1,.cls-2{stroke:#fff;stroke-miterlimit:10;}.cls-2{fill:none;stroke-width:6px;}</style></defs><path class="cls-1" d="M14,148.7c-2.2-1.3-3.6-2.68-4.2-4.12a10,10,0,0,1-.9-3.68q0-4.2,3.08-11.4a173.68,173.68,0,0,1,8.25-16.42Q25.42,103.86,31.71,94q-5.55-.45-9.45-.6t-6.75-.15H10.26A10.2,10.2,0,0,1,16,87.13a25.36,25.36,0,0,1,9.82-1.73,47.54,47.54,0,0,1,5.25.3q2.7.3,5.55.75Q44.31,74.9,52.34,64t15-19.35A140.84,140.84,0,0,1,79,31.85q4.35-4.2,7.2-4.2a7.09,7.09,0,0,1,3.68,1.28,25.08,25.08,0,0,1,4.27,3.52q-1.5,1.2-3.82,6.38t-5,13q-2.62,7.8-5.18,17.1t-4.72,19Q73.26,97.56,72,106.25a107.18,107.18,0,0,0-1.28,15.3A24.36,24.36,0,0,0,72,130.4a4.39,4.39,0,0,0,4.27,3.15q3.9,0,8.85-5.4t10.8-16.8l1.5,1.5A60.14,60.14,0,0,1,85.94,132.5q-7,7.65-14.48,7.65a9.32,9.32,0,0,1-8.92-5.47q-2.77-5.48-2.78-14.63a89.85,89.85,0,0,1,.68-10.5q.68-5.7,1.87-11.85-6.6-1-12.07-1.72T40.11,94.7q-7.05,13-13.72,26.85T14,148.7ZM63.36,92.45q2.25-9.9,5.25-20T75,53.15q3.38-9.15,6.37-16Q76.71,40,70.64,47.23a182.83,182.83,0,0,0-12.83,17.7Q51.06,75.35,44,87.8q5.1,1,10.13,2.33Z"/><path class="cls-1" d="M119.76,148.7q-8.25,0-12.45-2.77t-4.2-9.23q0-.45.75-.45a16.87,16.87,0,0,1,3.75.75q2.7.75,10.35.75a92.22,92.22,0,0,0,23.85-2.92,67.83,67.83,0,0,0,19-8,42.74,42.74,0,0,0,12.45-11.47,22.76,22.76,0,0,0,4.42-13.13,14,14,0,0,0-3.45-9.9,21.7,21.7,0,0,0-9.07-5.7A54,54,0,0,0,152.91,84a128.22,128.22,0,0,0-13-.68c-1.9,0-3.82,0-5.77.08s-3.78.07-5.48.07q-3.45,12.15-6.75,24.45t-6.75,23.85a9.58,9.58,0,0,1-6.3-2.1,6.39,6.39,0,0,1-2.55-5.1,14.36,14.36,0,0,1,.75-4.2q.75-2.4,1.35-4.35.9-3,3.15-10T117,89.45q3.23-9.45,7.12-19.8t8-20.25q4.13-9.9,8-17.55a42.47,42.47,0,0,0-10.57,3,51.72,51.72,0,0,0-6.68,3.53A7.83,7.83,0,0,1,119.46,40a3.86,3.86,0,0,1-1.87-.67,9.18,9.18,0,0,1-2-1.65,2.76,2.76,0,0,1-.9-1.73q7.5-3.15,15.68-5.7a67.34,67.34,0,0,1,19.87-2.55,81,81,0,0,1,10.95.83,40.42,40.42,0,0,1,11.4,3.3,22.24,22.24,0,0,1,8.85,7.2q3.45,4.73,3.45,12.52A23.67,23.67,0,0,1,181.71,64a26.94,26.94,0,0,1-8.25,8.55,45.46,45.46,0,0,1-11.1,5.32,75.45,75.45,0,0,1-11.85,2.85q11.1.6,17.93,3.15A28.72,28.72,0,0,1,178.79,90a18.1,18.1,0,0,1,4.72,7.42,25.47,25.47,0,0,1,1.2,7.5,28.66,28.66,0,0,1-4.5,15.75A44.58,44.58,0,0,1,168.36,133a77.69,77.69,0,0,1-16.05,8.78A97.87,97.87,0,0,1,135.06,147,78.2,78.2,0,0,1,119.76,148.7ZM129.51,80a107.37,107.37,0,0,0,16.43-1.87,55.78,55.78,0,0,0,14.92-5,30.68,30.68,0,0,0,10.88-9q4.13-5.55,4.12-13.8,0-7.8-3.67-12a19.31,19.31,0,0,0-9.45-5.85,44.33,44.33,0,0,0-12.23-1.65h-1.42a7.32,7.32,0,0,0-1.43.15,183.31,183.31,0,0,0-9.82,23.1Q133.41,66.65,129.51,80Z"/><polyline class="cls-2" points="193 68 193 3 128 3"/><polyline class="cls-2" points="128 178 193 178 193 113"/><polyline class="cls-2" points="68 3 3 3 3 68"/><polyline class="cls-2" points="3 113 3 178 68 178"/></svg>