<?xml version="1.0" standalone="no"?>
<!DOCTYPE svg PUBLIC "-//W3C//DTD SVG 20010904//EN"
 "http://www.w3.org/TR/2001/REC-SVG-20010904/DTD/svg10.dtd">
<svg version="1.0" xmlns="http://www.w3.org/2000/svg"
 width="333.000000pt" height="316.000000pt" viewBox="0 0 333.000000 316.000000"
 preserveAspectRatio="xMidYMid meet">

<g transform="translate(0.000000,316.000000) scale(0.100000,-0.100000)"
fill="#000000" stroke="none">
<path d="M535 2835 c-51 -18 -110 -81 -124 -131 -7 -24 -11 -153 -11 -330 0
-269 1 -292 18 -307 23 -21 27 -21 46 -1 14 13 16 55 16 307 0 424 -27 397
397 397 252 0 294 2 307 16 20 19 20 29 0 48 -13 14 -55 16 -312 16 -230 -1
-306 -4 -337 -15z"/>
<path d="M2182 2838 c-7 -7 -12 -19 -12 -28 0 -38 16 -40 318 -40 328 0 347
-3 376 -65 13 -28 16 -80 16 -322 0 -245 2 -292 16 -311 18 -26 27 -27 48 -6
14 13 16 56 16 320 0 237 -3 312 -14 337 -20 48 -87 107 -132 118 -62 14 -617
12 -632 -3z"/>
<path d="M1482 2199 c-35 -13 -50 -33 -77 -94 l-25 -55 -103 0 c-121 0 -178
-21 -212 -80 -19 -33 -20 -52 -20 -400 0 -405 0 -403 67 -452 l33 -23 537 0
c526 0 537 0 564 21 15 11 37 33 48 48 20 27 21 39 21 404 0 419 2 404 -69
455 -27 19 -46 22 -147 26 l-116 3 -29 62 c-43 91 -58 96 -274 95 -96 0 -185
-4 -198 -10z m386 -82 c6 -7 21 -41 35 -77 l24 -65 137 -5 c130 -5 139 -6 157
-29 18 -22 19 -44 19 -373 l0 -349 -25 -25 -25 -25 -514 3 c-479 3 -517 4
-533 21 -17 16 -18 46 -18 378 l0 361 24 19 c20 16 40 19 151 19 90 0 130 4
137 13 6 6 18 36 28 65 27 84 23 82 219 82 128 0 176 -3 184 -13z"/>
<path d="M1596 1791 c-243 -98 -174 -457 88 -454 135 1 230 97 230 233 0 70
-16 114 -63 163 -63 68 -169 92 -255 58z m159 -81 c79 -38 109 -145 64 -220
-27 -44 -44 -57 -93 -71 -60 -16 -112 -3 -156 41 -65 65 -65 155 1 221 52 52
115 62 184 29z"/>
<path d="M412 1068 c-16 -16 -17 -575 -1 -633 15 -52 82 -119 134 -134 25 -7
149 -11 332 -11 252 0 294 2 307 16 20 19 20 29 0 48 -13 14 -56 16 -312 16
-420 0 -392 -28 -392 394 0 156 -3 291 -6 300 -7 19 -45 21 -62 4z"/>
<path d="M2890 1061 c-6 -12 -10 -128 -10 -306 0 -241 -3 -292 -16 -320 -29
-62 -48 -65 -372 -65 -160 0 -297 -3 -306 -6 -19 -7 -21 -45 -4 -62 17 -17
599 -16 646 2 42 15 101 71 118 113 11 25 14 102 14 332 0 165 -3 306 -6 315
-9 22 -51 20 -64 -3z"/>
</g>
</svg>
